<?xml version="1.0" encoding="utf-8"?>
<!-- Generator: Adobe Illustrator 24.0.1, SVG Export Plug-In . SVG Version: 6.00 Build 0)  -->
<svg version="1.1" id="图层_1" xmlns="http://www.w3.org/2000/svg" xmlns:xlink="http://www.w3.org/1999/xlink" x="0px" y="0px"
	 viewBox="0 0 150.26 71.61" style="enable-background:new 0 0 150.26 71.61;" xml:space="preserve">
<style type="text/css">
	.st0{fill:#565656;}
	.st1{fill:none;stroke:#A0A0A0;stroke-width:0.5;stroke-miterlimit:10;}
	.st2{fill:none;stroke:#A0A0A0;stroke-width:0.5024;stroke-miterlimit:10;}
	.st3{fill:none;stroke:#A0A0A0;stroke-width:0.5023;stroke-miterlimit:10;}
	.st4{fill:none;stroke:#9A9A9B;stroke-width:0.538;stroke-miterlimit:10;stroke-dasharray:4.3039;}
	.st5{fill:none;stroke:#9A9A9B;stroke-width:0.5;stroke-miterlimit:10;stroke-dasharray:4;}
	.st6{fill:#FFFFFF;}
	.st7{fill:none;stroke:#9A9A9B;stroke-width:0.5986;stroke-miterlimit:10;stroke-dasharray:4.7886;}
	.st8{fill:none;stroke:#9A9A9B;stroke-width:0.5376;stroke-miterlimit:10;stroke-dasharray:4.3009;}
	.st9{fill:none;stroke:#9A9A9B;stroke-width:0.539;stroke-miterlimit:10;stroke-dasharray:4.3118;}
	.st10{fill:none;stroke:#9A9A9B;stroke-width:0.573;stroke-miterlimit:10;stroke-dasharray:5.2627;}
	.st11{fill:none;stroke:#9A9A9B;stroke-width:0.5508;stroke-miterlimit:10;stroke-dasharray:4.406;}
	.st12{fill:none;stroke:#9A9A9B;stroke-width:0.5219;stroke-miterlimit:10;stroke-dasharray:4.1751;}
	.st13{fill:none;stroke:#9A9A9B;stroke-width:0.6115;stroke-miterlimit:10;stroke-dasharray:4.8922;}
	.st14{fill:none;stroke:#9A9A9B;stroke-width:0.513;stroke-miterlimit:10;stroke-dasharray:4.104;}
	.st15{fill:none;stroke:#9A9A9B;stroke-width:0.5068;stroke-miterlimit:10;stroke-dasharray:4.0544;}
	.st16{fill:url(#SVGID_1_);}
	.st17{fill:url(#SVGID_2_);}
	.st18{fill:url(#SVGID_3_);}
	.st19{fill:url(#SVGID_4_);}
	.st20{fill:url(#SVGID_5_);}
	.st21{fill:url(#SVGID_6_);}
	.st22{fill:url(#SVGID_7_);}
	.st23{fill:url(#SVGID_8_);}
	.st24{fill:url(#SVGID_9_);}
	.st25{fill:url(#SVGID_10_);}
	.st26{fill:url(#SVGID_11_);}
	.st27{fill:url(#SVGID_12_);}
	.st28{fill:url(#SVGID_13_);}
	.st29{fill:url(#SVGID_14_);}
	.st30{fill:url(#SVGID_15_);}
	.st31{fill:url(#SVGID_16_);}
	.st32{fill:url(#SVGID_17_);}
	.st33{fill:url(#SVGID_18_);}
	.st34{fill:url(#SVGID_19_);}
	.st35{fill:url(#SVGID_20_);}
	.st36{fill:url(#SVGID_21_);}
	.st37{fill:url(#SVGID_22_);}
	.st38{fill:url(#SVGID_23_);}
	.st39{fill:url(#SVGID_24_);}
	.st40{fill:url(#SVGID_25_);}
	.st41{fill:url(#SVGID_26_);}
	.st42{fill:url(#SVGID_27_);}
	.st43{fill:url(#SVGID_28_);}
	.st44{fill:url(#SVGID_29_);}
	.st45{fill:url(#SVGID_30_);}
	.st46{fill:url(#SVGID_31_);}
	.st47{fill:url(#SVGID_32_);}
	.st48{fill:url(#SVGID_33_);}
	.st49{fill:url(#SVGID_34_);}
	.st50{fill:url(#SVGID_35_);}
	.st51{fill:url(#SVGID_36_);}
	.st52{fill:url(#SVGID_37_);}
	.st53{fill:url(#SVGID_38_);}
	.st54{fill:url(#SVGID_39_);}
	.st55{fill:url(#SVGID_40_);}
	.st56{fill:url(#SVGID_41_);}
	.st57{fill:url(#SVGID_42_);}
	.st58{fill:url(#SVGID_43_);}
	.st59{fill:url(#SVGID_44_);}
	.st60{fill:url(#SVGID_45_);}
</style>
<path class="st6" d="M70.94,61.94l23.67-0.09l-1.63,8.65l-23.67,0.09L70.94,61.94z M84.9,32.1l-8.37,0.03l1.63-8.65l13-20.59
	l9.97-0.04L88.19,23.44l2.7-0.01l3.99-5.75l10.17-0.04L84.17,48.49l13.01-0.05l-1.61,8.58l-23.74,0.09l1.57-8.37L84.9,32.1z
	 M106.75,64.97c1.87-2.11,3.85-4.86,5.7-8.41c0.54,1.38,1.25,2.51,2.15,3.36l5.01-26.64l-16.4,0.06l1.63-8.65l40.14-0.16l-1.63,8.65
	l-14.47,0.06l-1.6,8.51l13.64-0.05l-1.61,8.58l-13.64,0.05l-2.13,11.35l15.23-0.06l-1.63,8.65l-19.24,0.07
	c-3.28,0.01-5.89-0.66-7.85-2.01C108.71,67.41,107.63,66.28,106.75,64.97z M112.4,44.4c-0.37,1.72-0.8,3.43-1.28,5.14
	c-2.48,8.58-7.28,19.52-15.98,21.88l1.93-10.26c1.82-1.85,3.34-4.59,4.55-8.21c1.21-3.62,2.39-8.34,3.53-14.15l8.29-0.03
	c0,0-0.15,1.21-0.52,3.16C112.75,42.75,112.57,43.58,112.4,44.4z M114.63,21.13l-9.28,0.04l2.55-13.56l15.57-0.06l0.9-4.77
	l9.27-0.04l-0.9,4.77l15.57-0.06l-2.55,13.56l-9.34,0.04l0.92-4.91l-21.8,0.08L114.63,21.13z M17.43,3.18l-5.74,30.54l58.29-0.23
	l1.95-10.35l3.79-20.19L17.43,3.18z M22.73,25.27l0.97-4.6c18.5-1.09,29.72,1.4,36.46,4.46L22.73,25.27z M63.79,16.87
	c-15.34-4.63-37.96-1.68-39.23-1.5l0.97-4.49l39.38-0.15L63.79,16.87z M66.09,70.6L0.85,70.85l1.58-8.41l28.59-0.11l0.65-3.43
	l-25.5,0.1l1.58-8.41l25.5-0.1l0.65-3.43l-19.06,0.07c-2.65,1.46-5.69,2.19-9.1,2.2l1.61-8.54c1.89-0.1,3.35-0.55,4.38-1.35
	c1.04-0.8,1.93-2.06,2.67-3.79l9.32-0.04c-0.35,1.12-0.76,2.17-1.22,3.15l12.96-0.05l0.67-3.57l9.39-0.04l-0.67,3.57l26.9-0.1
	l-1.57,8.33l-26.9,0.1l-0.65,3.43l24.94-0.1L66,58.77l-24.94,0.1l-0.65,3.43l27.27-0.11L66.09,70.6z"/>
</svg>
