<?xml version="1.0" encoding="utf-8"?>
<!-- Generator: Adobe Illustrator 24.0.1, SVG Export Plug-In . SVG Version: 6.00 Build 0)  -->
<svg version="1.1" id="图层_1" xmlns="http://www.w3.org/2000/svg" xmlns:xlink="http://www.w3.org/1999/xlink" x="0px" y="0px"
	 viewBox="0 0 521.48 106.57" style="enable-background:new 0 0 521.48 106.57;" xml:space="preserve">
<style type="text/css">
	.st0{fill:#565656;}
	.st1{fill:none;stroke:#A0A0A0;stroke-width:0.5;stroke-miterlimit:10;}
	.st2{fill:none;stroke:#A0A0A0;stroke-width:0.5024;stroke-miterlimit:10;}
	.st3{fill:none;stroke:#A0A0A0;stroke-width:0.5023;stroke-miterlimit:10;}
	.st4{fill:none;stroke:#9A9A9B;stroke-width:0.538;stroke-miterlimit:10;stroke-dasharray:4.3039;}
	.st5{fill:none;stroke:#9A9A9B;stroke-width:0.5;stroke-miterlimit:10;stroke-dasharray:4;}
	.st6{fill:#FFFFFF;}
	.st7{fill:none;stroke:#9A9A9B;stroke-width:0.5986;stroke-miterlimit:10;stroke-dasharray:4.7886;}
	.st8{fill:none;stroke:#9A9A9B;stroke-width:0.5376;stroke-miterlimit:10;stroke-dasharray:4.3009;}
	.st9{fill:none;stroke:#9A9A9B;stroke-width:0.539;stroke-miterlimit:10;stroke-dasharray:4.3118;}
	.st10{fill:none;stroke:#9A9A9B;stroke-width:0.573;stroke-miterlimit:10;stroke-dasharray:5.2627;}
	.st11{fill:none;stroke:#9A9A9B;stroke-width:0.5508;stroke-miterlimit:10;stroke-dasharray:4.406;}
	.st12{fill:none;stroke:#9A9A9B;stroke-width:0.5219;stroke-miterlimit:10;stroke-dasharray:4.1751;}
	.st13{fill:none;stroke:#9A9A9B;stroke-width:0.6115;stroke-miterlimit:10;stroke-dasharray:4.8922;}
	.st14{fill:none;stroke:#9A9A9B;stroke-width:0.513;stroke-miterlimit:10;stroke-dasharray:4.104;}
	.st15{fill:none;stroke:#9A9A9B;stroke-width:0.5068;stroke-miterlimit:10;stroke-dasharray:4.0544;}
	.st16{fill:url(#SVGID_1_);}
	.st17{fill:url(#SVGID_2_);}
	.st18{fill:url(#SVGID_3_);}
	.st19{fill:url(#SVGID_4_);}
	.st20{fill:url(#SVGID_5_);}
	.st21{fill:url(#SVGID_6_);}
	.st22{fill:url(#SVGID_7_);}
	.st23{fill:url(#SVGID_8_);}
	.st24{fill:url(#SVGID_9_);}
	.st25{fill:url(#SVGID_10_);}
	.st26{fill:url(#SVGID_11_);}
	.st27{fill:url(#SVGID_12_);}
	.st28{fill:url(#SVGID_13_);}
	.st29{fill:url(#SVGID_14_);}
	.st30{fill:url(#SVGID_15_);}
	.st31{fill:url(#SVGID_16_);}
	.st32{fill:url(#SVGID_17_);}
	.st33{fill:url(#SVGID_18_);}
	.st34{fill:url(#SVGID_19_);}
	.st35{fill:url(#SVGID_20_);}
	.st36{fill:url(#SVGID_21_);}
	.st37{fill:url(#SVGID_22_);}
	.st38{fill:url(#SVGID_23_);}
	.st39{fill:url(#SVGID_24_);}
	.st40{fill:url(#SVGID_25_);}
	.st41{fill:url(#SVGID_26_);}
	.st42{fill:url(#SVGID_27_);}
	.st43{fill:url(#SVGID_28_);}
	.st44{fill:url(#SVGID_29_);}
	.st45{fill:url(#SVGID_30_);}
	.st46{fill:url(#SVGID_31_);}
	.st47{fill:url(#SVGID_32_);}
	.st48{fill:url(#SVGID_33_);}
	.st49{fill:url(#SVGID_34_);}
	.st50{fill:url(#SVGID_35_);}
	.st51{fill:url(#SVGID_36_);}
	.st52{fill:url(#SVGID_37_);}
	.st53{fill:url(#SVGID_38_);}
	.st54{fill:url(#SVGID_39_);}
	.st55{fill:url(#SVGID_40_);}
	.st56{fill:url(#SVGID_41_);}
	.st57{fill:url(#SVGID_42_);}
	.st58{fill:url(#SVGID_43_);}
	.st59{fill:url(#SVGID_44_);}
	.st60{fill:url(#SVGID_45_);}
</style>
<g>
	<path class="st6" d="M176.03,82.45c-0.33,1.87-0.35,3.64-0.07,5.29c0.28,1.63,0.83,3.06,1.64,4.25c0.81,1.19,1.84,2.15,3.06,2.86
		c0.43,0.25,0.88,0.43,1.35,0.56h52.03l6.11-34.39l0.32-0.36c3.16-3.57,7.47-4.3,12.18-4.32c1.1-0.01,2.04,0.1,3.07,0.34l1.89-10.86
		c-0.86,0-1.78,0.01-2.8,0.01c-3.67,0.02-7.84-0.63-11.01,2.68l-1.99,2.35l0.88-5.05L232,45.88l-6.81,38.91l-35.56,0.17
		c-1.11,0.01-2.02-0.48-2.69-1.45c-0.67-0.97-0.88-2.17-0.64-3.56l0.6-3.4l26.12-0.12c1.05,0,2.12-0.28,3.19-0.82
		c1.08-0.55,2.09-1.28,3-2.19c0.92-0.91,1.72-1.96,2.38-3.14c0.66-1.17,1.1-2.39,1.32-3.65l1.96-11.03
		c0.22-1.24,0.21-2.46-0.03-3.61c-0.24-1.15-0.66-2.18-1.24-3.07c-0.58-0.88-1.32-1.6-2.19-2.12c-0.87-0.53-1.83-0.79-2.87-0.78
		l-25.36,0.12c-1.56,0.01-3.08,0.34-4.5,0.97c-1.42,0.64-2.72,1.54-3.86,2.7c-1.14,1.15-2.13,2.53-2.94,4.11
		c-0.81,1.57-1.39,3.32-1.72,5.19L176.03,82.45z M189.75,60.45c0.17-0.93,0.6-1.76,1.31-2.46c0.7-0.7,1.46-1.06,2.24-1.06
		l19.15-0.09c0.65,0,1.16,0.26,1.5,0.77c0.34,0.51,0.44,1.16,0.3,1.94l-0.58,3.26c-0.13,0.75-0.45,1.37-0.93,1.85
		c-0.49,0.48-1.05,0.73-1.68,0.73l-22.21,0.1L189.75,60.45z M271,95.32l8.68-49.66l32.71-0.15c1.54-0.01,2.93,0.35,4.11,1.06
		c1.18,0.71,2.15,1.67,2.88,2.85c0.73,1.18,1.22,2.62,1.45,4.25c0.24,1.64,0.15,3.41-0.26,5.27l-6.36,36.19l-9.86,0.05l5.82-33.73
		c0.31-1.39,0.16-2.58-0.44-3.55c-0.6-0.97-1.46-1.46-2.57-1.45l-19.53,0.09l-6.77,38.75L271,95.32z M275.97,35.7l-11.14,0.05
		l2.24-11.81l10.97-0.05L275.97,35.7z M254.47,95.41l8.7-49.68l10.81-0.05l-8.71,49.73H254.47z M462.17,88.11l17.27-0.07l-1.19,6.31
		l-17.27,0.07L462.17,88.11z M472.36,66.34l-6.11,0.02l1.19-6.31l9.48-15.02l7.27-0.03l-9.43,15.02l1.97-0.01l2.91-4.2l7.42-0.03
		l-15.23,22.5l9.49-0.04l-1.18,6.26l-17.32,0.07l1.15-6.11L472.36,66.34z M488.3,90.32c1.36-1.54,2.81-3.55,4.16-6.14
		c0.4,1.01,0.91,1.83,1.57,2.45l3.65-19.43l-11.97,0.05l1.19-6.31l29.29-0.11l-1.19,6.31l-10.55,0.04l-1.17,6.21l9.95-0.04
		l-1.18,6.26l-9.95,0.04l-1.56,8.28l11.11-0.04l-1.19,6.31l-14.04,0.05c-2.39,0.01-4.3-0.48-5.73-1.47
		C489.72,92.1,488.93,91.28,488.3,90.32z M492.41,75.32c-0.27,1.26-0.58,2.5-0.93,3.75c-1.81,6.26-5.31,14.24-11.66,15.96l1.41-7.48
		c1.33-1.35,2.44-3.35,3.32-5.99c0.88-2.64,1.74-6.08,2.57-10.32l6.05-0.02c0,0-0.11,0.89-0.38,2.3
		C492.67,74.11,492.54,74.72,492.41,75.32z M494.04,58.34l-6.77,0.03l1.86-9.89l11.36-0.04l0.65-3.48l6.77-0.03l-0.66,3.48
		l11.36-0.04l-1.86,9.89l-6.82,0.03l0.67-3.58l-15.91,0.06L494.04,58.34z M462.89,59.8l2.77-14.72l-42.53,0.16l-4.19,22.28
		l42.53-0.16L462.89,59.8z M427,61.36l0.71-3.36c13.49-0.79,21.67,1.02,26.59,3.26L427,61.36z M456.96,55.23
		c-11.2-3.37-27.7-1.22-28.62-1.1l0.71-3.27l28.73-0.11L456.96,55.23z M458.63,94.43l-47.59,0.18l1.15-6.13l20.85-0.08l0.47-2.5
		l-18.6,0.07l1.15-6.13l18.6-0.07l0.47-2.5l-13.9,0.05c-1.94,1.06-4.15,1.6-6.64,1.61l1.17-6.23c1.38-0.07,2.44-0.4,3.2-0.98
		c0.76-0.58,1.41-1.5,1.95-2.76l6.8-0.03c-0.26,0.82-0.55,1.59-0.89,2.3l9.46-0.04l0.49-2.61l6.85-0.03l-0.49,2.61l19.63-0.08
		l-1.14,6.08l-19.63,0.08l-0.47,2.5l18.2-0.07l-1.15,6.13l-18.2,0.07l-0.47,2.5l19.89-0.08L458.63,94.43z M406.14,69.8
		c-1.51-1.53-3.82-2.69-7.07-3.56l-6.96-1.87c-3.19-0.85-4.4-1.41-4.88-1.74c-0.81-0.54-1.06-1.26-0.84-2.39
		c0.27-1.43,1.02-2.53,2.3-3.35c1.3-0.84,3.66-0.96,5.79-0.97l18.29-0.09l1.84-10.8l-18.5,0.09c-5.57,0.03-10.15,1.5-13.61,4.38
		c-3.5,2.91-5.7,6.62-6.54,11.03c-0.95,4.98-0.02,8.72,2.77,11.11c1.58,1.38,4.49,2.58,8.89,3.69l4.29,1.07
		c2.37,0.58,4.04,1.29,5.02,1.95c0.5,0.34,0.96,1.31,0.66,2.37c-0.36,1.24-1.25,3.19-8.72,3.23l-22.54,0.1
		c0.2-0.68,0.37-1.37,0.5-2.08l4.15-23.36c0.33-1.87,0.35-3.64,0.07-5.29c-0.28-1.63-0.83-3.06-1.64-4.25
		c-0.81-1.19-1.84-2.15-3.06-2.86c-1.22-0.71-2.62-0.87-4.18-0.87l-39.45,0.18c0.12,0.18,0.25,0.36,0.36,0.55
		c1.13,1.84,1.89,4.02,2.24,6.47c0.17,1.2,0.23,2.44,0.17,3.71l31.89-0.15c1.11-0.01,2.02,0.48,2.69,1.45
		c0.67,0.97,0.88,2.17,0.64,3.56l-0.6,3.4l-26.12,0.12c-1.05,0-2.12,0.28-3.19,0.82c-1.08,0.55-2.09,1.28-3,2.19
		c-0.92,0.91-1.72,1.96-2.38,3.14c-0.66,1.17-1.1,2.39-1.32,3.65l-1.96,11.03c-0.22,1.24-0.21,2.46,0.03,3.61
		c0.24,1.15,0.66,2.18,1.24,3.07c0.58,0.88,1.32,1.6,2.19,2.12c0.87,0.53,1.83,0.79,2.87,0.78l25.04-0.12l34.83-0.16l1.07-0.01
		l0-0.01c4.65-0.08,8.78-0.51,12.17-3.21c3.72-2.96,6.04-6.75,6.9-11.24C409.33,75.78,408.54,72.24,406.14,69.8z M357.26,80.61
		c-0.17,0.93-0.6,1.76-1.31,2.46c-0.65,0.65-1.34,0.98-2.06,1.04l-0.09,0l0,0.01c-0.03,0-0.05,0.01-0.08,0.01l-19.16,0.09
		c-0.65,0-1.16-0.26-1.5-0.77c-0.34-0.51-0.44-1.16-0.3-1.94l0.58-3.26c0.13-0.75,0.45-1.37,0.93-1.86
		c0.49-0.48,1.05-0.73,1.68-0.73l22.21-0.1L357.26,80.61z M162.51,75.45l9.13-0.04l-1.6,9.04c-0.28,1.59-0.8,3.09-1.53,4.48
		c-0.74,1.39-1.64,2.63-2.69,3.7c-1.05,1.06-2.21,1.9-3.48,2.5c-0.22,0.11-0.45,0.19-0.68,0.28h-18.53
		c-0.13-0.06-0.26-0.11-0.38-0.18c-1.03-0.58-1.9-1.39-2.59-2.43c-0.69-1.04-1.16-2.26-1.4-3.62c-0.24-1.37-0.23-2.86,0.05-4.44
		l4.86-27.66l-4.01,0.02l-19.38,0.09c-2.13,0.01-4.49,0.13-5.79,0.97c-1.28,0.82-2.03,1.92-2.3,3.35c-0.22,1.14,0.03,1.85,0.84,2.39
		c0.47,0.33,1.69,0.9,4.88,1.74l6.96,1.87c3.25,0.87,5.56,2.04,7.07,3.56c2.41,2.44,3.19,5.97,2.33,10.5
		c-0.86,4.5-3.18,8.28-6.9,11.24c-1.7,1.35-3.58,2.14-5.62,2.59H95.84l1.69-10.11l17.15-0.08c7.48-0.03,8.36-1.99,8.72-3.23
		c0.31-1.06-0.16-2.03-0.66-2.37c-0.98-0.66-2.64-1.37-5.02-1.95l-4.29-1.07c-4.4-1.11-7.31-2.32-8.89-3.69
		c-2.79-2.39-3.72-6.13-2.77-11.11c0.84-4.41,3.04-8.11,6.54-11.03c3.46-2.88,8.04-4.36,13.61-4.38l23.67-0.11l1.82-10.42l9.69-0.05
		l-1.87,10.52l27.43-0.09c-3.27,2.66-5.61,6.42-6.46,10.72l-22.87,0.08l-4.28,24.35c-0.2,1.12-0.04,2.08,0.46,2.84
		c0.51,0.77,1.24,1.16,2.18,1.15l5.82-0.03c0.91,0,1.76-0.38,2.5-1.12c0.75-0.74,1.22-1.67,1.41-2.76L162.51,75.45z"/>
	<path class="st6" d="M106.34,46.24h-21.3c0.78-16.16,1.57-32.48,2.14-44.33H75.22L43.09,46.24H1.15l0.69,0.15
		c31.1,5.72,57.7,23.45,74.29,47.91l0.57,0.82l5.99-0.01c0.44-8.94,1.11-23.55,1.83-38.41h13.74
		C100.05,52.57,102.85,48.98,106.34,46.24z M71.87,71.78c-4.2-5.89-9.56-11.01-15.78-15.08h16.67L71.87,71.78z M73.37,46.24H57.49
		l17.3-24.29L73.37,46.24z"/>
	<path class="st6" d="M2.23,105.23l40.82-36.26c-3.2-2.54-6.7-4.72-10.45-6.46L2.23,105.23z"/>
</g>
</svg>
